# xmcd
#
# Track frame offsets:
#	150
#	27295
#	45135
#	69930
#	95977
#	113870
#	134612
#	154382
#	181465
#	204877
#	226702
#	249050
#
# Disc length: 3604 seconds
#
# Revision: 0
# Processed by: cddbd v1.5.2PL0 Copyright (c) Steve Scherf et al.
# Submitted via: EasyCDDAExtractor 16.0.9.1
#
DISCID=950e120c
DTITLE=Khánh Hà and Anh Tú - Khánh Hà - Anh Tú: Nỗi Đau Dịu Dàng
DYEAR=1989
DGENRE=Pop
TTITLE0=Khánh Hà - Nỗi Đau Dịu Dàng
TTITLE1=Anh Tú - Cơn Mưa Phùn
TTITLE2=Khánh Hà - Phone Cho Em
TTITLE3=Khánh Hà - Trở Về Bến Mơ
TTITLE4=Khánh Hà and Anh Tú - Cát Bụi Tình Xa
TTITLE5=Khánh Hà - Bài Không Tên Số 4
TTITLE6=Khánh Hà - Sao Không Đến Bên Em
TTITLE7=Khánh Hà and Anh Tú - Con Đường Tình Ta Đi
TTITLE8=Khánh Hà - Mắt Biếc
TTITLE9=Anh Tú - Một Ngày Như Mọi Ngày
TTITLE10=Khánh Hà - Ngậm Ngùi
TTITLE11=Khánh Hà - Căn Nhà Xinh
EXTD=
EXTT0=
EXTT1=
EXTT2=
EXTT3=
EXTT4=
EXTT5=
EXTT6=
EXTT7=
EXTT8=
EXTT9=
EXTT10=
EXTT11=
PLAYORDER=
